Coordinates
version=1
nRows=21
nColumns=27
inDegrees=yes

Units are S.I. units (second, meters, Newtons, ...)
If the header above contains a line with 'inDegrees', this indicates whether rotational values are in degrees (yes) or radians (no).

endheader
time	pelvis_rotation	pelvis_tilt	pelvis_list	pelvis_tx	pelvis_ty	pelvis_tz	hip_flexion_r	hip_adduction_r	hip_rotation_r	knee_angle_r	knee_rotation_r	knee_adduction_r	knee_angle_r_beta	ankle_angle_r	subtalar_angle_r	mtp_angle_r	hip_flexion_l	hip_adduction_l	hip_rotation_l	knee_angle_l	knee_rotation_l	knee_adduction_l	knee_angle_l_beta	ankle_angle_l	subtalar_angle_l	mtp_angle_l
      5.33500000	      6.45898694	    -30.53709692	      5.34527706	     -0.00769470	      0.67260511	     -1.17870444	     90.24568496	    -41.79253373	      0.21064934	     72.02418015	      0.00000000	      9.20327647	      1.25705908	      5.96683297	      0.00000000	      0.00000000	     88.73296669	    -22.97758373	      0.77435981	     69.73267107	      0.00000000	     -9.60197279	      1.21706471	      8.48130790	      0.00000000	      0.00000000
      5.34000000	      6.63997478	    -30.28049913	      5.35947484	     -0.00667805	      0.67350098	     -1.17911190	     89.68729880	    -42.19087977	     -0.27258528	     71.87475896	      0.00000000	      9.56390393	      1.25445119	      5.95652936	      0.00000000	      0.00000000	     88.34349251	    -22.85018994	      0.66149873	     69.61307992	      0.00000000	     -9.78376803	      1.21497745	      8.54182163	      0.00000000	      0.00000000
      5.34500000	      6.47810659	    -30.17798366	      5.41707158	     -0.00622608	      0.67430605	     -1.17932926	     89.52496532	    -42.04457380	     -0.16301394	     71.70836195	      0.00000000	      9.56449441	      1.25154702	      5.91165450	      0.00000000	      0.00000000	     87.99396773	    -22.96437409	      0.42841838	     69.47960593	      0.00000000	     -9.78394365	      1.21264789	      8.54717028	      0.00000000	      0.00000000
      5.35000000	      6.28052972	    -30.23228223	      5.30758290	     -0.00606273	      0.67506682	     -1.17928574	     89.37493865	    -41.73785996	     -0.14459837	     71.50309232	      0.00000000	      9.21320255	      1.24796439	      5.81776375	      0.00000000	      0.00000000	     87.90872954	    -23.06726911	      0.49136956	     69.35144689	      0.00000000	     -9.60029442	      1.21041109	      8.51839556	      0.00000000	      0.00000000
      5.35500000	      6.32179953	    -29.97812851	      5.36526423	     -0.00513009	      0.67585644	     -1.17959892	     88.95186005	    -41.96259539	     -0.40778309	     71.37910344	      0.00000000	      9.56418789	      1.24580037	      5.81178529	      0.00000000	      0.00000000	     87.45446947	    -23.07877005	      0.24084200	     69.23406285	      0.00000000	     -9.78593015	      1.20836235	      8.61399415	      0.00000000	      0.00000000
      5.36000000	      6.02155159	    -30.04598000	      5.32376431	     -0.00506187	      0.67648675	     -1.17951428	     88.98331287	    -41.53460625	     -0.15574150	     71.23586691	      0.00000000	      9.21663900	      1.24330042	      5.75508501	      0.00000000	      0.00000000	     87.32913996	    -23.28172974	      0.16795464	     69.12115509	      0.00000000	     -9.60120890	      1.20639174	      8.56491178	      0.00000000	      0.00000000
      5.36500000	      6.27667648	    -29.72561063	      5.42199002	     -0.00395271	      0.67730740	     -1.18002750	     88.41683844	    -42.03044687	     -0.57565277	     71.08876152	      0.00000000	      9.57276842	      1.24073295	      5.69824390	      0.00000000	      0.00000000	     86.85764681	    -23.06874213	      0.00671502	     69.00258892	      0.00000000	     -9.78414388	      1.20432237	      8.63021283	      0.00000000	      0.00000000
      5.37000000	      6.18484316	    -29.62773311	      5.43190314	     -0.00344176	      0.67799992	     -1.18017121	     88.19144781	    -41.96371688	     -0.59629575	     70.94560812	      0.00000000	      9.57310027	      1.23823445	      5.67637815	      0.00000000	      0.00000000	     86.58407288	    -23.12784251	     -0.11920834	     68.89456881	      0.00000000	     -9.78415919	      1.20243706	      8.63221079	      0.00000000	      0.00000000
      5.37500000	      6.07281889	    -29.56878930	      5.38621907	     -0.00299542	      0.67861333	     -1.18023351	     87.98937724	    -41.86349418	     -0.66333256	     70.82029613	      0.00000000	      9.57289491	      1.23604734	      5.63671775	      0.00000000	      0.00000000	     86.38754988	    -23.22114707	     -0.18923541	     68.80302463	      0.00000000	     -9.78572097	      1.20083932	      8.65189028	      0.00000000	      0.00000000
      5.38000000	      5.93711231	    -29.61120936	      5.30897483	     -0.00280588	      0.67925157	     -1.18016480	     87.85225418	    -41.60530528	     -0.61286112	     70.64730379	      0.00000000	      9.22859662	      1.23302806	      5.59739443	      0.00000000	      0.00000000	     86.31299494	    -23.26677090	     -0.11155201	     68.69300024	      0.00000000	     -9.59984217	      1.19891903	      8.61924994	      0.00000000	      0.00000000
      5.38500000	      6.01620993	    -29.40865223	      5.38186811	     -0.00187066	      0.67988206	     -1.18048323	     87.52518296	    -41.87501589	     -0.85853876	     70.57809870	      0.00000000	      9.57953354	      1.23182020	      5.56948228	      0.00000000	      0.00000000	     85.93959230	    -23.23961081	     -0.33375746	     68.60728762	      0.00000000	     -9.78465892	      1.19742306	      8.73006230	      0.00000000	      0.00000000
      5.39000000	      5.98195476	    -29.23879526	      5.39647352	     -0.00121608	      0.68055688	     -1.18062707	     87.19216984	    -41.87221743	     -0.92565786	     70.43389681	      0.00000000	      9.57961402	      1.22930340	      5.58534368	      0.00000000	      0.00000000	     85.60654559	    -23.25316639	     -0.44298487	     68.50001856	      0.00000000	     -9.78492851	      1.19555086	      8.71449061	      0.00000000	      0.00000000
      5.39500000	      5.88917829	    -29.25729189	      5.26368986	     -0.00093289	      0.68125555	     -1.18052899	     86.93491066	    -41.66580036	     -1.01708737	     70.24805680	      0.00000000	      9.23885320	      1.22605988	      5.54048334	      0.00000000	      0.00000000	     85.54719129	    -23.25885882	     -0.27076547	     68.38737828	      0.00000000	     -9.60019771	      1.19358492	      8.66274813	      0.00000000	      0.00000000
      5.40000000	      5.96176933	    -29.01041116	      5.34303134	      0.00006113	      0.68195992	     -1.18079776	     86.54026522	    -41.90745801	     -1.24547728	     70.15843051	      0.00000000	      9.58165093	      1.22449561	      5.54709650	      0.00000000	      0.00000000	     85.11000033	    -23.23728510	     -0.51196763	     68.27705056	      0.00000000	     -9.78415401	      1.19165934	      8.72713128	      0.00000000	      0.00000000
      5.40500000	      5.84587433	    -29.02369271	      5.26726215	      0.00035560	      0.68268292	     -1.18074179	     86.34227811	    -41.67521615	     -1.21897264	     69.96289883	      0.00000000	      9.24189653	      1.22108294	      5.51990527	      0.00000000	      0.00000000	     84.98355960	    -23.24616551	     -0.41598982	     68.14368322	      0.00000000	     -9.59817717	      1.18933164	      8.72136366	      0.00000000	      0.00000000
      5.41000000	      5.93765101	    -28.80561078	      5.34365075	      0.00135809	      0.68338057	     -1.18102791	     85.95040482	    -41.92463251	     -1.46050528	     69.86442094	      0.00000000	      9.58416864	      1.21936418	      5.59140351	      0.00000000	      0.00000000	     84.58413879	    -23.20553329	     -0.63654525	     68.03953139	      0.00000000	     -9.78296242	      1.18751384	      8.81686715	      0.00000000	      0.00000000
      5.41500000	      5.84253917	    -28.70090459	      5.33938786	      0.00198111	      0.68414392	     -1.18103808	     85.70369662	    -41.83792132	     -1.50727725	     69.73245067	      0.00000000	      9.58257281	      1.21706086	      5.53113297	      0.00000000	      0.00000000	     84.29091500	    -23.27671005	     -0.75775875	     67.90628139	      0.00000000	     -9.78298425	      1.18518819	      8.78641948	      0.00000000	      0.00000000
      5.42000000	      5.82373129	    -28.59360549	      5.29200394	      0.00269815	      0.68490144	     -1.18108072	     85.35202473	    -41.83969845	     -1.70495384	     69.58349938	      0.00000000	      9.58416073	      1.21446117	      5.52003262	      0.00000000	      0.00000000	     84.03738125	    -23.27579695	     -0.77022541	     67.78678290	      0.00000000	     -9.78246491	      1.18310255	      8.83933207	      0.00000000	      0.00000000
      5.42500000	      5.75249094	    -28.47012271	      5.35255059	      0.00338523	      0.68570058	     -1.18116828	     85.12647804	    -41.78313800	     -1.65790937	     69.44634778	      0.00000000	      9.58164250	      1.21206742	      5.50243735	      0.00000000	      0.00000000	     83.68345878	    -23.31282146	     -0.96180265	     67.63858948	      0.00000000	     -9.78249806	      1.18051609	      8.82493214	      0.00000000	      0.00000000
      5.43000000	      5.56607359	    -28.50961475	      5.23231804	      0.00369690	      0.68649412	     -1.18098370	     84.93093078	    -41.44588809	     -1.62548614	     69.24460734	      0.00000000	      9.23875781	      1.20854639	      5.48547936	      0.00000000	      0.00000000	     83.57087280	    -23.39092450	     -0.84503031	     67.49144304	      0.00000000	     -9.59599463	      1.17794790	      8.79354575	      0.00000000	      0.00000000
      5.43500000	      5.73501424	    -28.15228791	      5.27143160	      0.00502221	      0.68750074	     -1.18122144	     84.24240437	    -41.80983520	     -2.10460727	     69.10141392	      0.00000000	      9.58610859	      1.20604719	      5.49568642	      0.00000000	      0.00000000	     83.01198365	    -23.27985767	     -1.01650671	     67.30908988	      0.00000000	     -9.78081263	      1.17476523	      8.81712168	      0.00000000	      0.00000000
